<svg height="512pt" viewBox="0 0 512 512" width="512pt" xmlns="http://www.w3.org/2000/svg"><path d="m512 256c0 141.386719-114.613281 256-256 256s-256-114.613281-256-256 114.613281-256 256-256 256 114.613281 256 256zm0 0" fill="#fe6a16"/><path d="m371.898438 484.316406c83.140624-42.289062 140.101562-128.648437 140.101562-228.316406 0-19.75-2.238281-38.976562-6.472656-57.4375l-141.042969-141.042969-216.96875 32.542969 101.96875 101.96875-96.464844 48.914062 57.691407 57.691407-12.039063 12.453125zm0 0" fill="#e53d03"/><path d="m439.578125 434.394531-32.839844-41.519531-101.933593-37.121094c-9.402344-3.425781-15.65625-12.363281-15.65625-22.371094v-22.078124h-66.296876v22.078124c0 10.007813-6.253906 18.945313-15.65625 22.371094l-101.933593 37.121094-31.484375 42.910156c46.417968 47.046875 110.910156 76.214844 182.222656 76.214844 72.011719 0 137.066406-29.746094 183.578125-77.605469zm0 0" fill="#ffcdbe"/><path d="m406.738281 392.875-101.933593-37.125c-9.402344-3.421875-15.65625-12.359375-15.65625-22.367188v-22.078124h-33.148438v200.695312c72.011719 0 137.066406-29.746094 183.582031-77.605469zm0 0" fill="#faa68e"/><path d="m198.667969 218.238281c0 15.726563-12.746094 28.472657-28.472657 28.472657-15.722656 0-28.46875-12.746094-28.46875-28.472657 0-15.722656 12.746094-28.46875 28.46875-28.46875 15.726563 0 28.472657 12.746094 28.472657 28.46875zm0 0" fill="#ffcdbe"/><path d="m370.273438 218.238281c0 15.726563-12.746094 28.472657-28.46875 28.472657-15.726563 0-28.472657-12.746094-28.472657-28.472657 0-15.722656 12.746094-28.46875 28.472657-28.46875 15.722656 0 28.46875 12.746094 28.46875 28.46875zm0 0" fill="#faa68e"/><path d="m293.910156 324.835938-19.011718 9.765624c-11.863282 6.09375-25.933594 6.09375-37.792969 0l-19.011719-9.765624c-28.175781-14.476563-45.890625-43.488282-45.890625-75.164063v-74.109375c0-46.28125 37.515625-83.800781 83.800781-83.800781 46.277344 0 83.796875 37.519531 83.796875 83.800781v74.109375c0 31.675781-17.714843 60.691406-45.890625 75.164063zm0 0" fill="#ffbeaa"/><path d="m256 91.761719v247.410156c6.484375 0 12.964844-1.523437 18.894531-4.570313l19.015625-9.765624c28.175782-14.472657 45.890625-43.488282 45.890625-75.164063v-74.109375c0-46.28125-37.519531-83.800781-83.800781-83.800781zm0 0" fill="#e09380"/><path d="m406.738281 392.875-76.359375-27.808594c-19.382812 18.375-45.5625 29.652344-74.378906 29.652344s-54.996094-11.277344-74.378906-29.652344l-76.359375 27.808594-31.484375 42.910156c46.417968 47.046875 110.910156 76.214844 182.222656 76.214844 72.011719 0 137.066406-29.746094 183.582031-77.605469zm0 0" fill="#414952"/><path d="m406.738281 392.875-76.359375-27.808594c-19.382812 18.375-45.5625 29.652344-74.378906 29.652344v117.28125c72.011719 0 137.066406-29.746094 183.582031-77.605469zm0 0" fill="#23272b"/><path d="m170.238281 79.816406h171.523438v110.613282h-171.523438zm0 0" fill="#555a66"/><path d="m256 79.816406h85.761719v110.613282h-85.761719zm0 0" fill="#333940"/><path d="m147.515625 57.519531h216.96875v32.542969h-216.96875zm0 0" fill="#414952"/><path d="m256 57.519531h108.484375v32.542969h-108.484375zm0 0" fill="#23272b"/><path d="m302.800781 57.519531h14.464844v71.777344h-14.464844zm0 0" fill="#ffb13b"/><path d="m309.667969 57.519531h7.597656v71.777344h-7.597656zm0 0" fill="#ff9500"/><path d="m325.402344 170.652344h-30.738282v-32.308594c0-8.488281 6.882813-15.371094 15.371094-15.371094 8.488282 0 15.367188 6.882813 15.367188 15.371094zm0 0" fill="#f24500"/><path d="m325.402344 138.34375c0-8.488281-6.878906-15.371094-15.367188-15.371094-.125 0-.246094.015625-.367187.019532v47.664062h15.734375zm0 0" fill="#d13400"/><path d="m181.621094 365.066406 74.378906 87.933594 74.378906-87.933594zm0 0" fill="#fff"/><path d="m256 365.066406v87.933594l74.378906-87.933594zm0 0" fill="#e9edf5"/><path d="m256 453-150.738281-60.125 76.359375-27.808594zm0 0" fill="#636978"/><path d="m256 453 150.738281-60.125-76.359375-27.808594zm0 0" fill="#414952"/></svg>